<svg width="28" height="28" viewBox="0 0 28 28" fill="none" xmlns="http://www.w3.org/2000/svg">
<path fill-rule="evenodd" clip-rule="evenodd" d="M20.4192 20.2547C21.6413 20.2547 22.633 19.2662 22.6368 18.0442V18.0442V18.0442C22.6361 17.4224 22.3879 16.8265 21.9471 16.388L20.4776 14.9174V10.5487C20.4773 8.83155 19.7945 7.18494 18.5795 5.9715C17.3645 4.75806 15.7171 4.07731 13.9999 4.07917V4.07917C10.4281 4.0811 7.53336 6.97685 7.53271 10.5487V14.9138L6.06327 16.3845C5.62212 16.8228 5.37352 17.4187 5.37231 18.0407V18.0407V18.0407C5.37617 19.2627 6.36789 20.2512 7.5899 20.2512L20.4192 20.2547Z" stroke="currentColor" stroke-width="1.75" stroke-linecap="round" stroke-linejoin="round"/>
<path d="M12.2737 23.9207H15.725" stroke="currentColor" stroke-width="1.75" stroke-linecap="round" stroke-linejoin="round"/>
</svg>
