<svg width="28" height="28" viewBox="0 0 28 28" fill="none" xmlns="http://www.w3.org/2000/svg">
<path d="M13.9973 20.4193C13.6764 20.4193 13.4138 20.682 13.4173 21.0029C13.4173 21.3239 13.6799 21.5865 14.0008 21.5865C14.3218 21.5865 14.5844 21.3239 14.5844 21.0029C14.5844 20.682 14.3218 20.4193 13.9973 20.4193" stroke="currentColor" stroke-width="1.75" stroke-linecap="round" stroke-linejoin="round"/>
<path d="M13.9973 13.4164C13.6764 13.4164 13.4138 13.6791 13.4173 14C13.4173 14.321 13.6799 14.5836 14.0008 14.5836C14.3218 14.5836 14.5844 14.321 14.5844 14C14.5844 13.6791 14.3218 13.4164 13.9973 13.4164" stroke="currentColor" stroke-width="1.75" stroke-linecap="round" stroke-linejoin="round"/>
<path d="M13.9971 6.41351C13.6761 6.41351 13.4135 6.67612 13.417 6.99709C13.417 7.31806 13.6796 7.58067 14.0006 7.58067C14.3216 7.58067 14.5842 7.31806 14.5842 6.99709C14.5842 6.67612 14.3216 6.41351 13.9971 6.41351" stroke="currentColor" stroke-width="1.75" stroke-linecap="round" stroke-linejoin="round"/>
</svg>
