<svg width="28" height="28" viewBox="0 0 28 28" fill="none" xmlns="http://www.w3.org/2000/svg">
<path d="M14 15C14.5523 15 15 14.5523 15 14C15 13.4477 14.5523 13 14 13V15ZM8.16422 13C7.61193 13 7.16422 13.4477 7.16422 14C7.16422 14.5523 7.61193 15 8.16422 15V13ZM17.5014 19.6686C18.0537 19.6686 18.5014 19.2209 18.5014 18.6686C18.5014 18.1163 18.0537 17.6686 17.5014 17.6686V19.6686ZM8.16422 17.6686C7.61193 17.6686 7.16422 18.1163 7.16422 18.6686C7.16422 19.2209 7.61193 19.6686 8.16422 19.6686V17.6686ZM19.8357 10.3314C20.388 10.3314 20.8357 9.88368 20.8357 9.3314C20.8357 8.77912 20.388 8.3314 19.8357 8.3314V10.3314ZM8.16422 8.3314C7.61193 8.3314 7.16422 8.77912 7.16422 9.3314C7.16422 9.88368 7.61193 10.3314 8.16422 10.3314V8.3314ZM14 13H8.16422V15H14V13ZM17.5014 17.6686H8.16422V19.6686H17.5014V17.6686ZM18.6686 23.5044H9.33137V25.5044H18.6686V23.5044ZM9.33137 23.5044C6.66065 23.5044 4.49561 21.3393 4.49561 18.6686H2.49561C2.49561 22.4439 5.55608 25.5044 9.33137 25.5044V23.5044ZM4.49561 18.6686V9.3314H2.49561V18.6686H4.49561ZM4.49561 9.3314C4.49561 6.66068 6.66065 4.49564 9.33137 4.49564V2.49564C5.55608 2.49564 2.49561 5.55611 2.49561 9.3314H4.49561ZM9.33137 4.49564H18.6686V2.49564H9.33137V4.49564ZM18.6686 4.49564C21.3393 4.49564 23.5044 6.66068 23.5044 9.3314H25.5044C25.5044 5.55611 22.4439 2.49564 18.6686 2.49564V4.49564ZM23.5044 9.3314V18.6686H25.5044V9.3314H23.5044ZM23.5044 18.6686C23.5044 21.3393 21.3393 23.5044 18.6686 23.5044V25.5044C22.4439 25.5044 25.5044 22.4439 25.5044 18.6686H23.5044ZM19.8357 8.3314H8.16422V10.3314H19.8357V8.3314Z" fill="currentColor"/>
</svg>
