<svg width="24" height="24" viewBox="0 0 24 24" fill="none" xmlns="http://www.w3.org/2000/svg">
<path fill-rule="evenodd" clip-rule="evenodd" d="M8.99878 15.0013L12.1501 14.6121C12.3715 14.585 12.5775 14.4846 12.7353 14.327L20.3695 6.69779C21.2148 5.85204 21.2148 4.48127 20.3695 3.63552V3.63552C19.5238 2.7902 18.153 2.7902 17.3072 3.63552L9.74409 11.1987C9.59091 11.3518 9.49156 11.5505 9.46097 11.7649L8.99878 15.0013Z" stroke="currentColor" stroke-width="1.5" stroke-linecap="round" stroke-linejoin="round"/>
<path d="M11.4999 3.99666C6.8035 3.99666 2.99634 7.80382 2.99634 12.5002C2.99634 17.1966 6.8035 21.0037 11.4999 21.0037C16.1963 21.0037 20.0034 17.1966 20.0034 12.5002" stroke="currentColor" stroke-width="1.5" stroke-linecap="round" stroke-linejoin="round"/>
<path d="M18.5327 8.52855L15.4705 5.46628" stroke="currentColor" stroke-width="1.5" stroke-linecap="round" stroke-linejoin="round"/>
</svg>
