<svg width="28" height="28" viewBox="0 0 28 28" fill="none" xmlns="http://www.w3.org/2000/svg">
<path fill-rule="evenodd" clip-rule="evenodd" d="M12.6656 15.3347C11.3006 13.9697 10.2716 12.4413 9.58792 10.8908C9.44325 10.563 9.52842 10.1792 9.78159 9.92601L10.7371 8.97168C11.5199 8.18885 11.5199 7.08168 10.8363 6.39801L9.46659 5.02835C8.55542 4.11718 7.07842 4.11718 6.16725 5.02835L5.40658 5.78901C4.54208 6.65351 4.18158 7.90068 4.41492 9.13735C4.99125 12.1858 6.76225 15.5237 9.61942 18.3808C12.4766 21.238 15.8144 23.009 18.8629 23.5853C20.0996 23.8187 21.3468 23.4582 22.2113 22.5937L22.9708 21.8342C23.8819 20.923 23.8819 19.446 22.9708 18.5348L21.6023 17.1663C20.9186 16.4827 19.8103 16.4827 19.1278 17.1663L18.0743 18.221C17.8211 18.4742 17.4373 18.5593 17.1094 18.4147C15.5589 17.7298 14.0306 16.6997 12.6656 15.3347Z" stroke="currentColor" stroke-width="1.75" stroke-linecap="round" stroke-linejoin="round"/>
</svg>
