<svg width="24" height="24" viewBox="0 0 24 24" fill="none" xmlns="http://www.w3.org/2000/svg">
<path fill-rule="evenodd" clip-rule="evenodd" d="M6.17966 6.99792H17.8205C19.5786 6.99792 21.0038 8.42315 21.0038 10.1813V18.0025C21.0038 19.6601 19.6601 21.0038 18.0026 21.0038H5.99759C4.34004 21.0038 2.99634 19.6601 2.99634 18.0025V10.1813C2.99634 8.42315 4.42156 6.99792 6.17966 6.99792Z" stroke="currentColor" stroke-width="1.5" stroke-linecap="round" stroke-linejoin="round"/>
<path d="M21.0038 10.9996C16.0312 13.6674 7.96897 13.6674 2.99634 10.9996" stroke="currentColor" stroke-width="1.5" stroke-linecap="round" stroke-linejoin="round"/>
<path d="M7.99854 8.99875V4.99708C7.99854 3.89205 8.89434 2.99625 9.99937 2.99625H14.001C15.1061 2.99625 16.0019 3.89205 16.0019 4.99708V8.99875" stroke="currentColor" stroke-width="1.5" stroke-linecap="round" stroke-linejoin="round"/>
<path d="M13.5008 17.0021H10.4995" stroke="currentColor" stroke-width="1.5" stroke-linecap="round" stroke-linejoin="round"/>
</svg>
