<svg width="28" height="28" viewBox="0 0 28 28" fill="none" xmlns="http://www.w3.org/2000/svg">
<path fill-rule="evenodd" clip-rule="evenodd" d="M14 24.5044C19.8014 24.5044 24.5044 19.8014 24.5044 14C24.5044 8.1986 19.8014 3.49564 14 3.49564C8.19857 3.49564 3.49561 8.1986 3.49561 14C3.49561 19.8014 8.19857 24.5044 14 24.5044Z" stroke="currentColor" stroke-width="2" stroke-linecap="round" stroke-linejoin="round"/>
<path fill-rule="evenodd" clip-rule="evenodd" d="M18.2146 19.2522H9.78541C9.42728 19.2516 9.13712 18.9614 9.13647 18.6033V18.0769C9.14096 16.579 10.3545 15.3659 11.8524 15.3621H16.1476C17.6455 15.3659 18.859 16.579 18.8635 18.0769V18.6033C18.8629 18.9614 18.5727 19.2516 18.2146 19.2522Z" stroke="currentColor" stroke-width="2" stroke-linecap="round" stroke-linejoin="round"/>
<path fill-rule="evenodd" clip-rule="evenodd" d="M14.0001 12.8329C12.5511 12.8329 11.376 11.6592 11.374 10.2102C11.3721 8.76127 12.5441 7.58454 13.9931 7.58067C15.4421 7.57682 16.6204 8.74729 16.6262 10.1963C16.6284 10.8944 16.3527 11.5647 15.8601 12.0593C15.3674 12.5539 14.6982 12.8322 14.0001 12.8329V12.8329Z" stroke="currentColor" stroke-width="2" stroke-linecap="round" stroke-linejoin="round"/>
</svg>
