<svg width="28" height="28" viewBox="0 0 28 28" fill="none" xmlns="http://www.w3.org/2000/svg">
<path d="M23.3333 5.83333C23.3333 4.54417 22.2892 3.5 21 3.5" stroke="currentColor" stroke-width="2" stroke-linecap="round" stroke-linejoin="round"/>
<path d="M21.0001 3.5H7.00008C5.71091 3.5 4.66675 4.54417 4.66675 5.83333V22.1667C4.66675 23.4558 5.71091 24.5 7.00008 24.5H21.0001C22.2892 24.5 23.3334 23.4558 23.3334 22.1667" stroke="currentColor" stroke-width="2" stroke-linecap="round" stroke-linejoin="round"/>
<path d="M9.33333 3.5V24.5" stroke="currentColor" stroke-width="2" stroke-linecap="round" stroke-linejoin="round"/>
<path fill-rule="evenodd" clip-rule="evenodd" d="M23.3334 16.3333H21.0001C19.7109 16.3333 18.6667 15.2892 18.6667 14V14C18.6667 12.7108 19.7109 11.6667 21.0001 11.6667H23.3334C23.9774 11.6667 24.5001 12.1893 24.5001 12.8333V15.1667C24.5001 15.8107 23.9774 16.3333 23.3334 16.3333Z" stroke="currentColor" stroke-width="2" stroke-linecap="round" stroke-linejoin="round"/>
<path d="M23.3333 5.83334V11.6667" stroke="currentColor" stroke-width="2" stroke-linecap="round" stroke-linejoin="round"/>
<path d="M23.3333 22.1667V16.3333" stroke="currentColor" stroke-width="2" stroke-linecap="round" stroke-linejoin="round"/>
</svg>
